<?xml version="1.0" standalone="no"?>
<!DOCTYPE svg PUBLIC "-//W3C//DTD SVG 20010904//EN"
 "http://www.w3.org/TR/2001/REC-SVG-20010904/DTD/svg10.dtd">
<svg version="1.0" xmlns="http://www.w3.org/2000/svg"
 width="1200.000000pt" height="1200.000000pt" viewBox="0 0 1200.000000 1200.000000"
 preserveAspectRatio="xMidYMid meet">
<metadata>
Created by potrace 1.11, written by Peter Selinger 2001-2013
</metadata>
<g transform="translate(0.000000,1200.000000) scale(0.100000,-0.100000)"
fill="#000000" stroke="none">
<path d="M4845 9683 c-353 -29 -616 -102 -914 -253 -243 -123 -433 -262 -631
-460 -172 -171 -318 -363 -416 -546 -20 -38 -40 -73 -44 -79 -13 -16 -89 -192
-126 -290 -114 -308 -169 -684 -144 -998 6 -84 20 -199 31 -257 10 -58 19
-110 19 -117 0 -6 -43 -25 -95 -42 -219 -73 -428 -184 -610 -326 -93 -72 -249
-222 -324 -310 -126 -149 -297 -453 -356 -630 -77 -235 -100 -377 -99 -615 0
-363 68 -607 255 -915 96 -160 239 -316 404 -440 43 -33 86 -66 95 -73 13 -12
13 -13 -1 -9 -9 3 -22 1 -30 -4 -12 -7 -12 -10 -1 -18 11 -7 11 -9 -1 -14 -11
-4 -14 1 -13 17 3 21 -1 23 -41 23 -39 0 -43 -2 -43 -23 0 -19 -5 -24 -24 -24
-14 0 -33 -11 -44 -25 -15 -18 -29 -25 -56 -25 -25 0 -36 -4 -36 -15 0 -11
-12 -15 -42 -15 -40 -1 -42 -2 -24 -15 16 -12 17 -18 8 -27 -10 -10 -15 -10
-23 2 -8 13 -13 11 -34 -12 -17 -20 -34 -28 -58 -28 -18 0 -37 -3 -40 -7 -4
-3 -30 -14 -57 -24 -28 -10 -68 -31 -89 -48 -21 -17 -43 -31 -48 -31 -6 0 -17
-8 -26 -18 -13 -14 -17 -39 -17 -105 0 -71 -3 -87 -15 -87 -8 0 -15 -7 -15
-15 0 -11 12 -15 49 -15 41 0 53 -4 69 -25 11 -14 25 -25 31 -25 6 0 11 -7 11
-15 0 -11 11 -15 40 -15 22 0 40 -4 40 -10 0 -5 20 -10 44 -10 26 0 48 -6 56
-15 10 -12 10 -15 -4 -15 -9 0 -16 -7 -16 -15 0 -11 11 -15 40 -15 l40 0 0
-40 0 -40 40 0 c22 0 40 -4 40 -10 0 -5 18 -10 40 -10 38 0 40 -2 40 -30 0
-28 2 -30 40 -30 22 0 40 -4 40 -10 0 -6 33 -10 80 -10 64 0 80 -3 80 -15 0
-11 11 -15 40 -15 29 0 40 -4 40 -15 0 -11 11 -15 40 -15 22 0 40 -4 40 -10 0
-6 33 -10 80 -10 64 0 80 -3 80 -15 0 -12 16 -15 80 -15 47 0 80 4 80 10 0 6
18 10 40 10 36 0 40 -2 40 -25 l0 -25 160 0 c100 0 160 -4 160 -10 0 -6 33
-10 80 -10 64 0 80 -3 80 -15 0 -13 24 -15 160 -15 136 0 160 -2 160 -15 0
-13 24 -15 160 -15 100 0 160 -4 160 -10 0 -6 60 -10 160 -10 136 0 160 -2
160 -15 0 -13 24 -15 160 -15 136 0 160 -2 160 -15 0 -12 20 -15 119 -15 79 0
121 -4 123 -11 6 -17 1187 -17 1197 0 5 7 51 14 124 18 64 3 117 10 117 15 0
4 11 8 24 8 13 0 26 7 30 15 3 8 10 15 16 15 5 0 10 -7 10 -15 0 -9 9 -15 25
-15 14 0 25 5 25 11 0 26 36 38 113 39 62 0 77 3 77 15 0 12 15 15 68 16 49 1
60 3 42 9 -38 12 66 12 109 0 26 -7 37 -6 45 4 6 8 21 17 34 21 18 5 22 2 22
-14 0 -12 5 -21 10 -21 6 0 10 6 10 14 0 17 22 26 63 26 18 0 78 5 135 12 98
11 126 22 80 31 -13 2 -3 4 22 5 25 0 68 1 96 1 29 0 65 6 80 12 16 6 73 11
127 10 62 -1 97 2 97 8 0 6 18 11 40 11 29 0 40 4 40 15 0 11 11 15 38 15 20
0 55 5 77 10 25 6 42 5 46 -1 4 -6 22 -4 50 6 28 11 70 16 117 15 45 -1 72 3
72 9 0 7 30 11 80 11 75 0 80 1 80 21 0 19 4 20 34 15 19 -4 54 -2 78 3 27 6
44 7 46 1 5 -13 82 -13 82 -1 0 5 36 12 80 16 44 4 80 11 80 15 0 4 36 11 80
15 74 7 99 17 68 28 -7 2 29 2 80 0 87 -3 92 -2 92 17 0 17 7 20 39 20 22 0
41 -5 43 -10 2 -7 16 -5 40 5 23 9 68 15 118 15 63 0 80 3 80 14 0 8 -8 17
-17 19 -10 3 19 3 65 0 69 -5 82 -4 82 9 0 18 27 32 32 16 4 -12 158 0 158 13
0 5 36 9 80 9 64 0 80 3 80 15 0 16 43 21 128 16 29 -1 48 3 55 12 7 8 22 18
35 22 18 5 22 2 22 -14 0 -12 5 -21 10 -21 6 0 10 7 10 15 0 17 49 31 143 40
37 4 70 11 73 16 3 5 24 9 47 10 37 1 39 2 17 10 -22 8 -22 8 5 3 80 -15 95
-16 95 -6 0 15 57 26 113 23 26 -2 47 2 47 7 0 5 36 13 80 17 51 5 80 11 80
19 0 8 12 11 36 8 20 -3 39 0 43 6 3 6 27 20 51 31 25 12 59 29 75 39 30 19
71 32 114 37 33 5 81 26 81 36 0 5 11 9 24 9 13 0 29 7 36 15 7 8 18 15 25 15
8 0 22 11 33 25 12 15 30 25 46 25 l26 0 0 160 c0 136 -2 160 -15 160 -9 0
-15 -9 -15 -25 0 -30 -11 -32 -33 -7 -13 14 -17 39 -17 105 l0 87 -30 0 -30 0
0 89 c0 84 -2 91 -25 109 -14 11 -25 25 -25 32 0 6 -5 8 -10 5 -7 -4 -8 13 -3
52 5 32 8 137 8 233 -1 171 -1 177 -34 275 -38 115 -104 245 -123 245 -3 0
-42 35 -85 78 -43 43 -98 89 -123 102 -25 13 -57 29 -72 37 -14 7 -57 24 -95
38 -37 13 -68 28 -67 34 1 6 2 36 3 66 1 55 10 62 46 33 6 -4 44 -30 85 -57
74 -49 190 -153 243 -220 16 -18 30 -32 32 -29 2 2 10 57 16 122 24 240 -42
561 -154 748 -29 47 -35 68 -40 140 -36 469 -251 861 -614 1119 -78 55 -225
138 -248 140 -5 0 -25 21 -44 47 -28 38 -35 58 -38 107 -17 240 -97 517 -211
728 -151 279 -404 532 -675 673 -445 231 -1011 243 -1550 32 -42 -17 -79 -29
-81 -27 -2 2 -31 45 -65 96 -284 426 -734 773 -1202 927 -273 90 -591 131
-854 109z m1228 -1350 c-7 -2 -19 -2 -25 0 -7 3 -2 5 12 5 14 0 19 -2 13 -5z
m212 -13 c-3 -5 -12 -7 -20 -3 -21 7 -19 13 6 13 11 0 18 -4 14 -10z m-45 -10
c0 -5 18 -10 40 -10 22 0 40 5 40 10 0 13 37 13 46 -1 3 -6 15 -9 25 -6 11 3
16 1 13 -4 -3 -6 6 -7 23 -4 19 5 24 4 15 -3 -11 -7 -10 -10 3 -16 26 -9 42
-7 25 4 -21 13 -4 12 55 -4 28 -8 43 -15 35 -16 -11 -1 -9 -4 5 -10 28 -12 43
-12 25 1 -11 7 -6 8 20 3 19 -3 40 -10 45 -14 6 -4 35 -15 65 -25 45 -15 51
-20 35 -26 -15 -6 -11 -7 15 -6 23 1 34 -2 33 -10 -2 -7 3 -10 11 -7 15 6 79
-29 70 -39 -3 -3 3 -3 14 0 13 3 29 -4 44 -19 12 -12 26 -22 31 -20 14 4 136
-81 130 -91 -4 -6 0 -8 11 -4 10 4 15 3 11 -3 -3 -6 0 -10 7 -10 7 0 22 -8 33
-16 19 -15 19 -16 2 -29 -17 -12 -16 -13 7 -11 13 0 22 5 19 9 -3 5 4 3 16 -5
23 -14 28 -28 10 -28 -8 0 -8 -5 1 -15 7 -8 17 -15 22 -15 6 0 5 7 -2 15 -7 8
-8 15 -2 15 16 0 33 -26 27 -42 -4 -9 0 -15 9 -15 8 0 13 4 10 9 -17 28 20 -3
93 -77 50 -51 83 -91 80 -99 -4 -9 4 -16 19 -20 16 -4 24 -13 22 -24 -2 -9 2
-17 9 -17 25 0 34 -20 18 -41 -15 -19 -15 -19 -30 1 -43 57 -61 74 -83 80 -17
4 -22 11 -18 22 5 12 1 14 -14 10 -14 -4 -20 0 -20 13 0 17 -54 48 -73 42 -4
-1 -7 6 -5 15 2 12 -4 19 -19 21 -13 2 -23 7 -23 12 0 5 -9 12 -20 15 -11 3
-20 12 -20 20 0 19 -35 25 -97 15 -62 -10 -73 -7 -73 21 0 17 -7 19 -75 19
-68 0 -75 2 -75 20 0 15 -7 20 -26 20 -35 0 -21 18 21 26 43 8 36 24 -11 24
-22 0 -37 6 -40 15 -13 32 -24 13 -24 -40 l0 -55 -40 0 c-36 0 -40 -2 -40 -25
0 -22 -4 -25 -40 -25 -29 0 -40 4 -40 15 0 11 -11 15 -40 15 -29 0 -40 -4 -40
-15 0 -13 -24 -15 -160 -15 l-160 0 0 -40 0 -40 -80 0 -80 0 -2 28 c0 15 -1
33 -1 40 1 8 -21 12 -78 12 -78 0 -79 0 -79 25 0 23 -4 25 -40 25 -29 0 -40 4
-40 15 0 11 -11 15 -40 15 l-40 0 0 -40 c0 -22 -3 -40 -7 -41 -46 -6 -61 -4
-56 6 2 7 -4 15 -14 19 -15 6 -15 9 -3 16 12 8 12 10 -3 16 -24 9 -21 33 6 44
16 6 17 9 5 9 -9 1 -20 -3 -23 -9 -3 -5 -16 -10 -28 -10 -12 0 -35 -9 -52 -20
-16 -11 -36 -20 -43 -20 -7 0 -30 -11 -52 -25 -30 -19 -40 -32 -41 -53 l-2
-27 -4 28 c-4 27 -33 39 -33 13 0 -8 -14 -18 -32 -21 -35 -8 -88 -40 -101 -62
-4 -7 -13 -13 -18 -13 -6 0 -25 -11 -43 -25 -18 -14 -36 -25 -39 -25 -4 0 -15
-7 -24 -15 -46 -41 -178 -145 -183 -145 -4 0 -13 -12 -20 -26 -8 -14 -27 -33
-42 -42 -15 -9 -28 -20 -28 -25 0 -5 -25 -33 -55 -62 -30 -28 -55 -59 -55 -68
0 -9 -6 -17 -14 -17 -8 0 -21 -9 -29 -20 -14 -20 -27 -17 -27 7 0 7 8 13 18
13 20 0 45 60 36 84 -3 7 5 21 16 31 18 16 23 17 31 5 7 -10 8 -3 3 23 -5 32
-3 40 19 57 21 16 25 27 21 53 -3 17 -1 59 4 92 9 56 10 57 11 18 0 -24 6 -43
12 -43 6 0 10 18 9 43 -1 23 -1 48 -1 55 1 17 21 15 21 -2 0 -10 9 -6 28 12
15 15 22 28 16 30 -21 5 -23 52 -3 62 12 7 19 6 22 -3 6 -16 47 20 47 42 0 9
9 24 20 34 12 10 17 23 13 33 -5 13 -2 16 10 11 11 -4 27 4 46 23 18 19 35 28
45 24 15 -6 17 -2 20 34 1 16 25 32 49 32 32 0 88 32 97 54 5 12 9 15 9 8 1
-7 6 -10 11 -7 6 4 8 11 5 16 -4 5 3 9 15 9 12 0 18 5 15 10 -6 9 14 14 42 11
8 -1 10 5 6 14 -4 11 -1 16 8 15 38 -6 69 1 69 15 0 8 12 17 28 21 85 19 105
26 93 33 -14 9 40 20 109 22 41 1 42 2 15 9 -21 5 -24 8 -10 9 12 0 47 8 79
16 31 8 87 17 122 19 36 2 68 7 71 10 11 11 243 7 243 -4z m-543 -36 c-3 -3
-12 -4 -19 -1 -8 3 -5 6 6 6 11 1 17 -2 13 -5z m-264 -101 c-7 -2 -19 -2 -25
0 -7 3 -2 5 12 5 14 0 19 -2 13 -5z m167 -308 c0 -9 -9 -15 -25 -15 -24 0 -32
10 -18 23 12 13 43 7 43 -8z m1615 -95 c3 -5 1 -10 -4 -10 -6 0 -11 5 -11 10
0 6 2 10 4 10 3 0 8 -4 11 -10z m-1295 -25 c0 -11 -11 -15 -40 -15 -29 0 -40
4 -40 15 0 11 11 15 40 15 29 0 40 -4 40 -15z m1120 0 c0 -11 -11 -15 -40 -15
-29 0 -40 4 -40 15 0 11 11 15 40 15 29 0 40 -4 40 -15z m0 -160 c0 -11 -11
-15 -40 -15 -29 0 -40 4 -40 15 0 11 11 15 40 15 29 0 40 -4 40 -15z m549 -61
c37 -46 81 -114 73 -114 -5 0 -15 7 -22 15 -7 8 -9 15 -5 15 4 0 2 7 -5 15 -7
8 -16 12 -21 9 -5 -3 -9 2 -9 11 0 23 -25 45 -50 45 -12 0 -18 4 -15 11 4 6
13 8 21 5 8 -3 11 0 7 10 -3 8 -12 13 -19 10 -15 -6 -19 6 -7 18 4 4 16 -3 25
-16 10 -13 22 -28 27 -34z m936 7 l40 -7 -37 -5 c-20 -3 -35 -1 -32 3 2 4 -19
9 -48 11 -51 3 -52 3 -8 5 25 0 63 -3 85 -7z m240 -43 c22 -6 58 -11 81 -12
25 -1 67 -15 113 -39 39 -21 76 -35 81 -32 6 4 13 -1 16 -10 4 -8 14 -14 23
-13 10 2 15 -3 13 -13 -1 -9 4 -22 13 -29 12 -10 16 -9 21 4 3 9 10 16 15 16
4 0 6 -7 3 -15 -4 -9 0 -15 10 -15 9 0 16 5 16 11 0 5 5 7 12 3 9 -6 9 -9 0
-12 -7 -2 -12 -11 -12 -19 0 -13 3 -13 15 -3 12 10 15 10 15 -4 0 -9 -5 -16
-12 -16 -6 0 -8 -3 -5 -6 4 -4 12 -2 20 4 10 8 13 5 15 -14 1 -13 -3 -24 -8
-24 -6 0 -10 5 -10 10 0 6 -10 4 -23 -4 -20 -14 -27 -13 -66 4 -24 11 -51 20
-60 20 -9 0 -40 9 -69 19 -139 51 -447 54 -627 7 -98 -26 -187 -56 -222 -75
-10 -5 -52 -26 -93 -46 -41 -21 -81 -42 -89 -48 -7 -6 -23 -17 -35 -24 -75
-43 -78 -43 -78 12 0 23 6 41 18 49 9 7 14 18 11 23 -10 16 21 83 38 83 8 0
15 7 15 15 0 8 18 22 40 31 22 9 40 23 40 31 0 9 6 13 14 10 9 -4 17 2 21 14
5 15 12 18 33 13 22 -5 24 -3 12 6 -12 10 -11 11 8 7 32 -7 52 1 45 19 -4 10
3 14 26 14 17 0 31 4 31 10 0 5 11 12 25 16 14 3 25 10 25 15 0 5 16 9 36 9
21 0 33 -4 29 -10 -3 -5 -2 -10 4 -10 5 0 11 4 13 10 4 13 223 29 323 23 44
-2 98 -9 120 -15z m-1140 -88 c3 -5 1 -10 -4 -10 -6 0 -11 5 -11 10 0 6 2 10
4 10 3 0 8 -4 11 -10z m50 -10 c3 -5 1 -10 -4 -10 -6 0 -11 5 -11 10 0 6 2 10
4 10 3 0 8 -4 11 -10z m-2935 -15 c0 -8 -4 -15 -10 -15 -5 0 -10 7 -10 15 0 8
5 15 10 15 6 0 10 -7 10 -15z m2970 -20 c0 -12 -19 -12 -23 0 -4 9 -1 12 9 8
7 -3 14 -7 14 -8z m30 -68 c0 -4 -7 -2 -15 7 -8 8 -15 21 -15 28 1 14 30 -20
30 -35z m1560 -31 c0 -3 -4 -8 -10 -11 -5 -3 -10 -1 -10 4 0 6 5 11 10 11 6 0
10 -2 10 -4z m-100 -16 c0 -5 -4 -10 -10 -10 -5 0 -10 5 -10 10 0 6 5 10 10
10 6 0 10 -4 10 -10z m179 -54 c-3 -3 -11 5 -18 17 -13 21 -12 21 5 5 10 -10
16 -20 13 -22z m-4728 -39 c-8 -8 -11 -7 -11 4 0 20 13 34 18 19 3 -7 -1 -17
-7 -23z m4760 6 c13 -16 12 -17 -3 -4 -10 7 -18 15 -18 17 0 8 8 3 21 -13z
m-21 -13 c0 -5 -4 -10 -10 -10 -5 0 -10 5 -10 10 0 6 5 10 10 10 6 0 10 -4 10
-10z m-2029 -450 c320 -23 618 -144 854 -346 60 -51 181 -173 227 -227 l23
-28 55 20 c121 44 223 63 365 68 592 22 1059 -288 1244 -825 24 -69 26 -80 11
-67 -14 13 -19 13 -23 3 -3 -7 -3 4 0 25 4 25 2 37 -6 37 -7 0 -10 4 -7 8 3 5
-1 9 -8 9 -8 0 -13 -15 -13 -41 -1 -101 1 -96 -43 -96 -29 0 -40 -4 -40 -15 0
-11 -11 -15 -40 -15 l-40 0 0 -40 0 -40 -40 0 c-29 0 -40 -4 -40 -15 0 -11
-11 -15 -40 -15 -36 0 -40 -2 -40 -25 0 -22 -4 -25 -40 -25 l-40 0 0 -40 0
-40 -120 0 -120 0 0 -40 0 -40 -120 0 -120 0 0 -40 0 -40 -80 0 c-79 0 -80 0
-80 -25 0 -22 -4 -25 -40 -25 -29 0 -40 -4 -40 -15 0 -11 -11 -15 -40 -15 -29
0 -40 -4 -40 -15 0 -11 -11 -15 -40 -15 -22 0 -40 -4 -40 -10 0 -5 -18 -10
-40 -10 -29 0 -40 -4 -40 -15 0 -12 -16 -15 -80 -15 -79 0 -80 0 -80 -25 0
-25 -1 -25 -80 -25 -64 0 -80 -3 -80 -15 0 -12 -16 -15 -80 -15 l-80 0 0 -40
0 -40 -160 0 c-136 0 -160 -2 -160 -15 0 -11 -11 -15 -40 -15 -36 0 -40 -2
-40 -25 l0 -25 -160 0 -160 0 0 -25 0 -25 -120 0 c-100 0 -120 -2 -120 -15 0
-12 -20 -15 -120 -15 -100 0 -120 -2 -120 -15 0 -11 -11 -15 -40 -15 -36 0
-40 -2 -40 -25 0 -22 -4 -25 -40 -25 -36 0 -40 3 -40 25 0 23 -4 25 -40 25
-22 0 -40 -4 -40 -10 0 -6 -33 -10 -80 -10 -64 0 -80 -3 -80 -15 0 -11 -11
-15 -40 -15 -29 0 -40 4 -40 15 0 11 -11 15 -40 15 -29 0 -40 -4 -40 -15 0
-13 -45 -15 -342 -15 -189 0 -367 3 -396 7 l-54 6 32 20 c17 11 28 22 26 25
-13 12 -83 -31 -104 -64 -14 -21 -29 -33 -37 -31 -16 7 -50 -28 -65 -68 -8
-20 -14 -25 -19 -17 -6 10 -13 6 -25 -13 -9 -14 -37 -46 -60 -70 -24 -24 -46
-49 -50 -57 -12 -26 -32 -53 -64 -88 -18 -19 -35 -47 -39 -62 -3 -16 -9 -28
-14 -28 -5 0 -9 -6 -9 -13 0 -7 -13 -39 -30 -70 -16 -32 -30 -65 -30 -73 0
-18 -9 -18 -32 3 -23 21 -24 97 -2 153 13 31 21 40 40 40 21 0 24 4 24 40 0
29 -4 40 -15 40 -8 0 -15 -7 -15 -15 0 -11 -11 -15 -40 -15 -29 0 -40 4 -40
15 0 8 7 15 15 15 11 0 15 11 15 40 0 29 -4 40 -15 40 -11 0 -15 11 -15 40 0
30 -4 40 -16 40 -12 0 -14 9 -12 43 2 27 7 41 16 40 8 -2 12 10 12 37 0 29 4
40 15 40 17 0 38 43 37 74 -1 11 12 35 28 53 17 19 30 40 30 48 0 7 9 16 19
20 11 3 23 15 26 26 4 10 13 19 21 19 8 0 19 11 26 25 6 13 15 22 19 19 5 -3
9 0 9 5 0 6 7 11 15 11 8 0 15 5 15 10 0 6 5 10 11 10 7 0 17 6 23 14 6 7 41
18 79 24 37 6 82 18 99 27 24 11 48 14 93 9 33 -3 67 -8 75 -11 8 -4 18 -7 22
-7 3 -1 10 -4 14 -8 4 -5 16 -8 26 -8 10 0 18 -4 18 -10 0 -5 10 -10 23 -10
13 0 29 -6 35 -12 10 -10 14 -10 21 0 5 9 13 5 29 -13 12 -14 31 -25 42 -25
10 0 41 -9 69 -19 l49 -20 -3 48 c-1 26 -7 56 -13 66 -15 29 -32 204 -32 331
0 75 -5 123 -15 147 -8 19 -12 37 -8 40 10 11 -7 57 -22 57 -10 0 -15 11 -15
34 0 19 -4 37 -9 40 -4 3 -11 45 -15 93 -4 48 -11 90 -16 93 -7 4 -15 271 -11
347 1 7 13 24 27 38 22 23 25 32 21 76 -3 28 -2 48 1 45 12 -13 42 40 48 86 5
37 10 48 21 44 8 -3 11 -1 8 4 -3 6 0 10 8 10 7 0 23 14 36 31 19 25 20 33 9
46 -12 15 -11 15 10 4 22 -12 23 -11 12 9 -10 18 -9 21 1 15 9 -6 11 -3 6 8
-4 11 -2 14 9 10 12 -4 19 7 15 29 0 4 7 4 17 1 9 -3 14 -3 10 2 -10 10 11 37
23 29 5 -3 9 0 9 5 0 6 8 20 18 32 29 35 213 163 292 204 41 21 80 41 85 45 6
4 48 21 95 38 113 42 276 80 386 91 49 4 94 9 99 10 6 0 71 -4 146 -9z m-1252
-561 c-24 -15 -30 -10 -11 9 9 10 19 14 21 9 2 -5 -3 -13 -10 -18z m-169 -609
c0 -47 -4 -80 -10 -80 -6 0 -10 33 -10 80 0 47 4 80 10 80 6 0 10 -33 10 -80z
m-1730 -27 c-8 -3 -23 -10 -32 -15 -11 -5 -18 -5 -18 1 0 10 23 18 50 19 13 0
13 0 0 -5z m-125 -53 c-3 -5 -14 -10 -23 -9 -14 0 -13 2 3 9 27 11 27 11 20 0z
m-115 -44 c0 -3 -4 -8 -10 -11 -5 -3 -10 -1 -10 4 0 6 5 11 10 11 6 0 10 -2
10 -4z m6140 -70 c0 -8 -4 -18 -10 -21 -5 -3 -10 3 -10 14 0 12 5 21 10 21 6
0 10 -6 10 -14z m57 -153 c-3 -10 -5 -2 -5 17 0 19 2 27 5 18 2 -10 2 -26 0
-35z m10 -45 c-3 -8 -6 -5 -6 6 -1 11 2 17 5 13 3 -3 4 -12 1 -19z m0 -65 c-3
-10 -5 -2 -5 17 0 19 2 27 5 18 2 -10 2 -26 0 -35z m-737 -278 c0 -11 -11 -15
-40 -15 -29 0 -40 4 -40 15 0 11 11 15 40 15 29 0 40 -4 40 -15z m-3760 -576
c0 -17 -4 -28 -10 -24 -5 3 -10 17 -10 31 0 13 5 24 10 24 6 0 10 -14 10 -31z
m1680 16 c0 -11 -11 -15 -40 -15 -29 0 -40 4 -40 15 0 11 11 15 40 15 29 0 40
-4 40 -15z m-1705 -55 c4 -6 -7 -10 -24 -10 -27 0 -31 -4 -31 -27 0 -30 -14
-22 -25 14 -5 18 -3 22 9 17 9 -3 16 -1 16 5 0 14 47 15 55 1z m1145 -25 c0
-11 -11 -15 -40 -15 -29 0 -40 4 -40 15 0 11 11 15 40 15 29 0 40 -4 40 -15z
m3983 -350 c-7 -21 -13 -19 -13 6 0 11 4 18 10 14 5 -3 7 -12 3 -20z m97 -331
c0 -49 -2 -55 -15 -44 -9 8 -15 30 -15 56 0 32 4 44 15 44 12 0 15 -13 15 -56z
m-8900 -196 c0 -5 -12 0 -26 11 -14 11 -31 19 -37 17 -7 -1 -9 -1 -4 1 4 3 5
9 1 14 -3 5 11 0 30 -12 20 -12 36 -25 36 -31z m45 -18 c3 -6 -1 -7 -9 -4 -18
7 -21 14 -7 14 6 0 13 -4 16 -10z"/>
<path d="M6380 8276 c0 -2 7 -7 16 -10 8 -3 12 -2 9 4 -6 10 -25 14 -25 6z"/>
<path d="M6133 8043 c4 -4 30 -6 57 -4 28 1 50 -2 50 -6 0 -4 36 -8 80 -8 44
-1 80 2 80 6 0 5 19 10 43 12 23 2 -39 4 -137 5 -99 1 -176 -1 -173 -5z"/>
<path d="M6568 8043 c7 -3 16 -2 19 1 4 3 -2 6 -13 5 -11 0 -14 -3 -6 -6z"/>
<path d="M7018 8043 c7 -3 16 -2 19 1 4 3 -2 6 -13 5 -11 0 -14 -3 -6 -6z"/>
<path d="M5978 8029 c-16 -5 -7 -7 27 -8 28 0 56 3 63 8 16 10 -54 9 -90 0z"/>
<path d="M6620 8030 c-8 -5 -4 -9 12 -13 33 -9 50 -8 44 2 -8 13 -42 20 -56
11z"/>
<path d="M6498 8023 c12 -2 32 -2 45 0 12 2 2 4 -23 4 -25 0 -35 -2 -22 -4z"/>
<path d="M5880 8010 c-24 -8 -23 -8 8 -9 17 -1 32 4 32 9 0 11 -5 11 -40 0z"/>
<path d="M7067 8009 c7 -7 15 -10 18 -7 3 3 -2 9 -12 12 -14 6 -15 5 -6 -5z"/>
<path d="M6568 8003 c6 -2 18 -2 25 0 6 3 1 5 -13 5 -14 0 -19 -2 -12 -5z"/>
<path d="M5757 7949 c7 -25 46 -22 51 4 3 13 -3 17 -26 17 -25 0 -29 -3 -25
-21z"/>
<path d="M7135 7960 c3 -5 11 -10 16 -10 6 0 7 5 4 10 -3 6 -11 10 -16 10 -6
0 -7 -4 -4 -10z"/>
<path d="M7040 7889 c0 -9 52 -39 70 -39 5 0 10 5 10 10 0 6 -6 10 -13 10 -7
0 -18 5 -25 12 -15 15 -42 19 -42 7z"/>
<path d="M7040 7850 c0 -5 7 -10 16 -10 8 0 12 5 9 10 -3 6 -10 10 -16 10 -5
0 -9 -4 -9 -10z"/>
<path d="M7363 7755 c85 -84 118 -103 42 -23 -67 69 -98 97 -109 98 -4 0 26
-34 67 -75z"/>
<path d="M7470 7640 c0 -5 5 -10 11 -10 5 0 7 5 4 10 -3 6 -8 10 -11 10 -2 0
-4 -4 -4 -10z"/>
<path d="M8860 7460 c-22 -6 -20 -7 15 -12 47 -6 49 -5 27 8 -9 6 -28 7 -42 4z"/>
<path d="M9133 7306 c18 -14 18 -14 0 -19 -14 -4 -13 -5 6 -6 17 -1 22 3 17
15 -3 9 -6 18 -6 20 0 2 -8 4 -17 4 -17 -1 -17 -2 0 -14z"/>
<path d="M10050 5471 c0 -5 5 -13 10 -16 6 -3 10 -2 10 4 0 5 -4 13 -10 16 -5
3 -10 2 -10 -4z"/>
<path d="M10001 5454 c0 -11 3 -14 6 -6 3 7 2 16 -1 19 -3 4 -6 -2 -5 -13z"/>
<path d="M6023 5240 c0 -25 2 -35 4 -22 2 12 2 32 0 45 -2 12 -4 2 -4 -23z"/>
<path d="M9600 5135 c0 -11 11 -15 40 -15 29 0 40 4 40 15 0 11 -11 15 -40 15
-29 0 -40 -4 -40 -15z"/>
<path d="M9280 4975 c0 -11 11 -15 40 -15 29 0 40 4 40 15 0 11 -11 15 -40 15
-29 0 -40 -4 -40 -15z"/>
<path d="M8000 4575 c0 -11 11 -15 40 -15 29 0 40 4 40 15 0 11 -11 15 -40 15
-29 0 -40 -4 -40 -15z"/>
<path d="M6122 4509 c2 -6 8 -10 13 -10 5 0 11 4 13 10 2 6 -4 11 -13 11 -9 0
-15 -5 -13 -11z"/>
<path d="M5897 4386 c-15 -22 -15 -24 0 -22 9 2 20 12 24 24 11 29 -5 28 -24
-2z"/>
<path d="M5835 4359 c7 -11 35 -12 35 -1 0 4 -9 8 -20 9 -11 1 -18 -2 -15 -8z"/>
<path d="M10862 3745 c-1 -32 18 -65 37 -65 6 0 11 17 11 40 0 29 -4 40 -15
40 -9 0 -16 -10 -16 -22 -1 -19 -3 -17 -9 7 l-8 30 0 -30z"/>
<path d="M1090 2920 c0 -29 4 -40 15 -40 11 0 15 11 15 40 0 29 -4 40 -15 40
-11 0 -15 -11 -15 -40z"/>
<path d="M5200 2090 c0 -5 18 -10 40 -10 22 0 40 5 40 10 0 6 -18 10 -40 10
-22 0 -40 -4 -40 -10z"/>
</g>
</svg>
